<?xml version="1.0" encoding="utf-8"?>
<!-- Generator: Adobe Illustrator 23.0.3, SVG Export Plug-In . SVG Version: 6.00 Build 0)  -->
<svg version="1.1" id="Layer_1" xmlns="http://www.w3.org/2000/svg" xmlns:xlink="http://www.w3.org/1999/xlink" x="0px" y="0px"
	 viewBox="0 0 300 300" style="enable-background:new 0 0 300 300;" xml:space="preserve">
<style type="text/css">
	.st0{fill:url(#SVGID_1_);}
	.st1{fill:url(#SVGID_2_);}
	.st2{fill:url(#SVGID_3_);}
	.st3{fill:url(#SVGID_4_);}
	.st4{fill:url(#SVGID_5_);}
	.st5{fill:url(#SVGID_6_);}
	.st6{fill:url(#SVGID_7_);}
	.st7{fill:url(#SVGID_8_);}
	.st8{fill:url(#SVGID_9_);}
	.st9{fill:url(#SVGID_10_);}
	.st10{fill:url(#SVGID_11_);}
	.st11{fill:url(#SVGID_12_);}
	.st12{fill:url(#SVGID_13_);}
	.st13{fill:url(#SVGID_14_);}
	.st14{fill:url(#SVGID_15_);}
	.st15{fill:url(#SVGID_16_);}
	.st16{fill:none;stroke:#232323;stroke-width:7;stroke-linecap:round;stroke-miterlimit:10;}
	.st17{fill:none;stroke:#232323;stroke-width:7;stroke-linecap:round;stroke-linejoin:round;stroke-miterlimit:10;}
	.st18{fill:#232323;}
	.st19{fill:none;stroke:#232323;stroke-width:5;stroke-linecap:round;stroke-linejoin:round;stroke-miterlimit:10;}
	.st20{fill:url(#SVGID_17_);}
	.st21{fill:url(#SVGID_18_);}
	.st22{fill:url(#SVGID_19_);}
	.st23{fill:url(#SVGID_20_);}
	.st24{fill:url(#SVGID_21_);}
	.st25{fill:url(#SVGID_22_);}
	.st26{fill:url(#SVGID_23_);}
	.st27{fill:url(#SVGID_24_);}
	.st28{fill:url(#SVGID_25_);}
	.st29{fill:url(#SVGID_26_);}
	.st30{fill:url(#SVGID_27_);}
	.st31{fill:url(#SVGID_28_);}
	.st32{opacity:0.8;}
	.st33{fill:#FFFFFF;}
</style>
<linearGradient id="SVGID_1_" gradientUnits="userSpaceOnUse" x1="21.9208" y1="144.4825" x2="275.7509" y2="144.4825">
	<stop  offset="0" style="stop-color:#FF0F87"/>
	<stop  offset="1" style="stop-color:#4612CC"/>
</linearGradient>
<path class="st0" d="M134.1,63.9c12.8,0,23.3-10.5,23.3-23.3s-10.5-23.3-23.3-23.3s-23.3,10.5-23.3,23.3S121.2,63.9,134.1,63.9z
	 M134.1,24.3c9,0,16.3,7.3,16.3,16.3s-7.3,16.3-16.3,16.3s-16.3-7.3-16.3-16.3S125.1,24.3,134.1,24.3z M78.3,218.9
	c-3.1,3.4-5.5,6.1-6.9,8.3c-5.7,9.1-8.6,15.8,2.1,27.3c2.4,2.6,5.2,3.9,8.2,3.9c0.2,0,0.3,0,0.5,0c9.1-0.4,18.4-12.6,35.3-34.8
	l3.4-4.5c12.9-16.9,14.9-30.2,16.2-39c1.1-7.4,1.6-8.9,4.5-9.5c1-0.2,2.2,0.7,3,1.5c8.9,8.5,17,41,14.8,53.5
	c-2.3,13.3-3.2,26.6,12.1,29.5c4.3,0.8,8,0.1,10.8-2.3c6.3-5.3,8.6-18.5,8.1-45.6c-0.7-35.9-21.2-63.5-23.7-66.7
	c-6.1-12.1-2.1-34.7-0.7-41.4c2.8-0.8,8.9-2.3,18.2-3.1c14-1.2,17.4-20.5,20.2-36c0.6-3.4,1.2-6.6,1.8-9.4
	c3.4-14.9,2.6-22-11.1-25.2c-3.3-0.8-6.5-0.3-9.2,1.5c-5.7,3.6-7.7,11.2-8.1,12.7c-0.7,2.2-2.1,9.4-3.9,20.1
	c-0.7,4.3-2.5,7.3-5.2,9.1c-4.9,3.2-11.5,1.8-11.6,1.8c-0.2-0.1-0.5-0.1-0.7-0.1c-0.2,0-22.6-0.8-46.5,0
	c-25.3,0.8-29.9,18-34.7,36.1c-0.3,1.1-0.6,2.2-0.9,3.3c-5.1,18.9-5.8,26.4,8.1,30.7c10.4,3.2,17.1-4.6,19.3-9.2
	c0.1-0.2,0.2-0.4,0.2-0.7l3.7-15.8c1.1,11.7,2.1,28,1.4,46.1C105.8,188.7,88.5,207.6,78.3,218.9z M110,95.1
	c-0.3-1.6-1.7-2.8-3.4-2.9c0,0-0.1,0-0.1,0c-1.6,0-3,1.1-3.4,2.7l-8,34c-0.7,1.4-4.2,7.2-10.7,5.2c-7.3-2.2-8.8-2.7-3.5-22.2
	c0.3-1.1,0.6-2.3,0.9-3.4C86.7,90.3,90,78.3,110,77.6c22.2-0.7,43-0.1,45.7,0c1.9,0.4,10,1.6,16.6-2.8c4.4-2.9,7.2-7.6,8.3-13.8
	c2.5-14.8,3.5-18.4,3.7-19.1c0.1-0.2,0.1-0.2,0.2-0.5c0.4-1.7,2.1-6.6,5-8.5c1.2-0.7,2.4-0.9,3.9-0.6c4.9,1.1,6.3,2.3,6.9,3.6
	c0.9,2.1,0.6,6.2-1,13.2c-0.7,3-1.3,6.2-1.9,9.7c-2.4,13.2-5.3,29.6-13.9,30.3c-14.2,1.2-21.5,4-21.8,4.1c-1.1,0.4-1.9,1.3-2.1,2.4
	c-0.3,1.3-7.5,32,1.1,48.4c0.1,0.2,0.2,0.4,0.4,0.5c0.2,0.3,21.7,27.8,22.4,62.8c0.2,8.6,0.7,34.8-5.6,40.1c-0.8,0.7-2.1,1.4-5,0.8
	c-6.9-1.3-9.4-4.6-6.5-21.5c2.5-14.4-6.3-49.6-16.9-59.8c-3.7-3.6-7.1-3.8-9.3-3.3c-7.9,1.7-8.9,8-10,15.3
	c-1.3,8.6-3.1,20.3-14.9,35.8l-3.4,4.5c-13.5,17.7-24.2,31.7-30.1,32c-0.7,0-1.8-0.1-3.3-1.7c-7.5-8-6.3-10.7-1.3-18.8
	c1.1-1.7,3.4-4.3,6.1-7.3c10.9-12,29.2-32.1,30.5-62C115.4,124.9,110.2,96.3,110,95.1z M273.8,88l-32.4,16.2v134
	c0,12-3.3,21-9.8,26.7c-6.5,5.8-14.5,6.6-18.2,6.6c-0.9,0-1.6,0-1.9-0.1h-186c-1.9,0-3.5-1.6-3.5-3.5s1.6-3.5,3.5-3.5h186.2
	c0.1,0,0.3,0,0.4,0c0.1,0,8.6,0.9,15-4.8c4.9-4.4,7.4-11.6,7.4-21.4V107.8l-34.7,17.4c-0.5,0.3-1,0.4-1.6,0.4
	c-1.3,0-2.5-0.7-3.1-1.9c-0.9-1.7-0.2-3.8,1.6-4.7l74.2-37.1c1.7-0.9,3.8-0.2,4.7,1.6C276.2,85.1,275.5,87.2,273.8,88z"/>
</svg>
