<?xml version="1.0" encoding="utf-8"?>
<!-- Generator: Adobe Illustrator 23.0.3, SVG Export Plug-In . SVG Version: 6.00 Build 0)  -->
<svg version="1.1" id="Layer_1" xmlns="http://www.w3.org/2000/svg" xmlns:xlink="http://www.w3.org/1999/xlink" x="0px" y="0px"
	 viewBox="0 0 300 300" style="enable-background:new 0 0 300 300;" xml:space="preserve">
<style type="text/css">
	.st0{fill:url(#SVGID_1_);}
	.st1{fill:url(#SVGID_2_);}
	.st2{fill:url(#SVGID_3_);}
	.st3{fill:url(#SVGID_4_);}
	.st4{fill:url(#SVGID_5_);}
	.st5{fill:url(#SVGID_6_);}
	.st6{fill:url(#SVGID_7_);}
	.st7{fill:url(#SVGID_8_);}
	.st8{fill:url(#SVGID_9_);}
	.st9{fill:url(#SVGID_10_);}
	.st10{fill:url(#SVGID_11_);}
	.st11{fill:url(#SVGID_12_);}
	.st12{fill:url(#SVGID_13_);}
	.st13{fill:url(#SVGID_14_);}
	.st14{fill:url(#SVGID_15_);}
	.st15{fill:url(#SVGID_16_);}
	.st16{fill:none;stroke:#232323;stroke-width:7;stroke-linecap:round;stroke-miterlimit:10;}
	.st17{fill:none;stroke:#232323;stroke-width:7;stroke-linecap:round;stroke-linejoin:round;stroke-miterlimit:10;}
	.st18{fill:#232323;}
	.st19{fill:none;stroke:#232323;stroke-width:5;stroke-linecap:round;stroke-linejoin:round;stroke-miterlimit:10;}
	.st20{fill:url(#SVGID_17_);}
	.st21{fill:url(#SVGID_18_);}
	.st22{fill:url(#SVGID_19_);}
	.st23{fill:url(#SVGID_20_);}
	.st24{fill:url(#SVGID_21_);}
	.st25{fill:url(#SVGID_22_);}
	.st26{fill:url(#SVGID_23_);}
	.st27{fill:url(#SVGID_24_);}
	.st28{fill:url(#SVGID_25_);}
	.st29{fill:url(#SVGID_26_);}
	.st30{fill:url(#SVGID_27_);}
	.st31{fill:url(#SVGID_28_);}
	.st32{opacity:0.8;}
	.st33{fill:#FFFFFF;}
</style>
<linearGradient id="SVGID_1_" gradientUnits="userSpaceOnUse" x1="24.0634" y1="149.9999" x2="275.8544" y2="149.9999">
	<stop  offset="0" style="stop-color:#FF0F87"/>
	<stop  offset="1" style="stop-color:#4612CC"/>
</linearGradient>
<path class="st0" d="M196.3,34.6c0-1.8,1.5-3.3,3.3-3.3c1.8,0,3.3,1.5,3.3,3.3s-1.5,3.3-3.3,3.3C197.8,38,196.3,36.5,196.3,34.6z
	 M208,53.5c1.8,0,3.3-1.5,3.3-3.3c0-1.8-1.5-3.3-3.3-3.3c-1.8,0-3.3,1.5-3.3,3.3C204.7,52,206.2,53.5,208,53.5z M196.3,51.8
	c1.8,0,3.3-1.5,3.3-3.3s-1.5-3.3-3.3-3.3c-1.8,0-3.3,1.5-3.3,3.3S194.5,51.8,196.3,51.8z M212.8,42.9c1.8,0,3.3-1.5,3.3-3.3
	c0-1.8-1.5-3.3-3.3-3.3c-1.8,0-3.3,1.5-3.3,3.3C209.4,41.4,210.9,42.9,212.8,42.9z M167.7,48.2l-0.2-10.1c0-1.9,1.5-3.5,3.4-3.6
	c0,0,0,0,0.1,0c1.9,0,3.5,1.5,3.5,3.4l0,1.6l5.1-0.1c0.7-4.2,2.5-8.1,5.1-11.3l-3.4-3.4l-1,1c-0.7,0.7-1.6,1-2.5,1
	c-0.9,0-1.8-0.3-2.5-1c-1.4-1.4-1.4-3.6,0-4.9l7.1-7.1c1.4-1.4,3.6-1.4,4.9,0c1.4,1.4,1.4,3.6,0,4.9l-1.1,1.1l3.6,3.6
	c3.2-2.2,7-3.7,11.1-4.1l0-4.9l-1.5,0c0,0,0,0,0,0c-1.9,0-3.5-1.6-3.5-3.5c0-1.9,1.6-3.5,3.5-3.5l10.1,0c0,0,0,0,0,0
	c1.9,0,3.5,1.6,3.5,3.5c0,1.9-1.6,3.5-3.5,3.5l-1.6,0l0,5.1c3.5,0.6,6.8,2,9.6,4l3.2-3.7l-1.1-1c-1.5-1.3-1.6-3.5-0.3-4.9
	c1.3-1.5,3.5-1.6,4.9-0.3l7.6,6.6c1.5,1.3,1.6,3.5,0.3,4.9c-0.7,0.8-1.7,1.2-2.6,1.2c-0.8,0-1.6-0.3-2.3-0.9l-1.2-1.1l-3.4,3.9
	c2.5,3.1,4.2,6.8,4.9,10.8l4.9-0.4l-0.1-1.4c-0.1-1.9,1.3-3.6,3.2-3.8c1.9-0.2,3.6,1.3,3.8,3.2l0.7,10c0.1,1.9-1.3,3.6-3.2,3.8
	c-0.1,0-0.2,0-0.3,0c-1.8,0-3.3-1.4-3.5-3.2l-0.1-1.6l-5.1,0.4c-0.5,4.3-2.1,8.3-4.5,11.6l3.6,3.3l1-1.1c1.3-1.4,3.5-1.6,4.9-0.3
	c1.4,1.3,1.6,3.5,0.3,4.9l-6.7,7.5c-0.7,0.8-1.6,1.2-2.6,1.2c-0.8,0-1.7-0.3-2.3-0.9c-1.4-1.3-1.6-3.5-0.3-4.9l1.1-1.2l-3.8-3.4
	c-3.1,2.4-6.8,4.1-10.9,4.7l0.3,4.9l1.5-0.1c1.9-0.1,3.6,1.4,3.7,3.3c0.1,1.9-1.4,3.6-3.3,3.7l-10,0.6c-0.1,0-0.1,0-0.2,0
	c-1.8,0-3.4-1.4-3.5-3.3c-0.1-1.9,1.4-3.6,3.3-3.7l1.6-0.1l-0.3-5.1c-4.5-0.6-8.6-2.4-12-5l-3.4,3.5l1,1c1.4,1.4,1.4,3.6,0.1,4.9
	c-0.7,0.7-1.6,1.1-2.5,1.1c-0.9,0-1.8-0.3-2.4-1l-7.2-7c-1.4-1.4-1.4-3.6-0.1-4.9s3.6-1.4,4.9-0.1l1.2,1.1l3.6-3.7
	c-2.3-3.2-3.8-7-4.3-11.1l-4.9,0.1l0,1.5c0,1.9-1.5,3.5-3.4,3.6c0,0,0,0-0.1,0C169.3,51.7,167.8,50.1,167.7,48.2z M186.4,43.6
	c0,9.6,7.8,17.4,17.4,17.4s17.4-7.8,17.4-17.4s-7.8-17.4-17.4-17.4S186.4,34.1,186.4,43.6z M37.2,217.3c0.5,0,0.9-0.1,1.4-0.3
	c1.8-0.8,2.6-2.8,1.9-4.6c-6.2-14.7-9.3-30.2-9.3-46.3c0-65.6,53.3-118.9,118.9-118.9c1.9,0,3.5-1.6,3.5-3.5s-1.6-3.5-3.5-3.5
	c-69.4,0-125.9,56.5-125.9,125.9c0,17,3.3,33.5,9.9,49C34.5,216.5,35.8,217.3,37.2,217.3z M239,77.1c-1.4-1.4-3.6-1.4-4.9,0
	c-1.4,1.4-1.4,3.6,0,4.9c22.5,22.5,34.8,52.3,34.8,84.1c0,65.6-53.3,118.9-118.9,118.9c-16.1,0-31.7-3.2-46.4-9.4
	c-1.8-0.8-3.8,0.1-4.6,1.9c-0.8,1.8,0.1,3.8,1.9,4.6c15.6,6.6,32.1,9.9,49.1,9.9c69.4,0,125.9-56.5,125.9-125.9
	C275.9,132.5,262.8,100.9,239,77.1z M135.3,90.2c0.5-4.3,4.9,0.3,7.5-1.1c-1.3-7-5-10.7-12.5-12.5c-9.2-2.2-16.8,3.8-25.6,3.1
	c-4.8-0.4-2.9,6-2.8,8.5c0.1,3.1,4.1,0.5,5.8,0c2.8-0.9,4.7-4.6,8.1-2.7c-1.3,7-6.5,9.4-12,7.9c-10.2-2.8-19.5-6.2-28.1,4.2
	c-1.8,2.1-5.6,3.5-7.5,6.8c4.8,1.6,7.4-3.5,11.2-2.7c6,1.3-0.7,6.9,3.1,9.5c2.6-1.6,0.5-5.8,3.5-7.5c3.7,5.4-3.3,9.2-1.5,14
	c3,0,2.2-4.7,6-4c0.2,3.3-2.8,8,3.6,9.2c2.6,0.5,0.8,3.3-0.4,4.6c-1.7,1.9-4,5.5-6.5,3.1c-4.5-4.3-12.6-5.5-12.9-13.3
	c-0.1-3.4,1.1-6.3-3.6-7.4c-4.7-1.2-8-0.1-10.4,4c-5,8.3-8.4,17.1-10.9,26.4c-0.4,1.5-1.2,3.2-0.1,4.7c7.2,10.3,3.4,21.6,2.6,32.4
	c-0.8,10,1.4,19.6,2.9,29.2c0.7,4.5,7.7,6.3,10.3,2.8c3.4-4.6,8.5-10,8.2-14.8c-0.6-12.2,6.4-17.7,15.1-22.9
	c1.6-0.9,3.5-1.8,2.9-4.3c-0.5-2.2-1.9-3.2-4.1-3.2c-2.5,0.1-4.4-0.7-4.7-3.4c-0.7-7.9,0.8-15.3,3.8-23.7c2.4,4.6,1.2,8.1,0.9,11.5
	c-1,11.6,0.2,12.8,11.8,11.4c1.9-0.2,3.8-0.4,5.7-0.9c2.5-0.7,6.1-0.5,6.6-3.8c0.6-3.7-3-2.6-5-3.6c-3-1.4-3.5-4.8-3.4-7.8
	c0-1.2,1-3.3,1.7-3.4c3.5-0.4,2.7,3.4,4.3,5c1,0.9,1.7,2.3,2.8,2.8c13.6,6,19.7,18,24.9,30.7c1.1,2.7,1.2,6.9,4.5,7.2
	c3.5,0.4,4-4,5.3-6.4c3.5-6.5,10.1-6.3,15.7-6.9c4.7-0.6,5.6,4.3,5.7,8.3c0.1,2.1,1.8,2.4,3.3,3.1c2.2,1,3.6,2.6,2.8,5.2
	c-1.3,4.5,0.2,8.6,1.4,12.8c0.1,0.2-0.7,0.6-1,0.9c-2.6,0.3-2.5-4.5-6.8-2.8c2.8,5.2,6,9.7,10.9,13.1c2.2-7.7-2.4-14.8-0.7-23.9
	c3.1,4.5,6.2,8,9.9,5.2c3.4-2.6,1.6-6.3-0.8-9.4c-1.3-1.7-0.3-5.1,0.5-4.3c5.9,6,8.6-1.8,12-3.1c10.2-4,10.8-7,9.2-17.8
	c-0.3-2.1-5.6-5.7-0.1-6.9c3-0.7,6.8,1.6,7.2,6.2c0.1,1,0.5,2.2,2.5,1.6c1.6-3.4-2.1-9.2,3.7-11c3.7-1.1,5-3.9,6.6-6.7
	c0.8-1.4,1.4-3.1,2.7-4c0.8-0.6,2.7,4.1,3.6,0.1c0.5-2.1-0.7-5.1-3.2-6c-8.9-3.3-2.8-6.9,0-9.8c3.6-3.7,9.6-1.2,13.9-5.9
	c0.4,6.4-2.1,11.9,2.5,16.3c1.5-3.4,1.9-6.6,1.7-9.9c-0.5-7.9-9.9-22.7-15.1-22.3c-15.7,1.1-30.8-3.7-46-4.9
	c-15.3-1.1-30.4-7.8-46.2-3.4C140,93.8,134.9,94,135.3,90.2z M179.9,250.1c0.7,4.5,4.7,2.1,7.2,1.2c6.5-2.3,12.7-2.5,17.9,2.5
	c4.6,4.4,8,1.9,11.8-0.9c8-6,8.1-13.7,4.7-22.1c-4.8,2.3-5.1,2.5-8.1-1.6c-1.7-2.2-3.1-0.9-4.9-0.8c-9.4,0.2-15.6,8.4-25.2,9.1
	C177.1,238,179.2,245.7,179.9,250.1z M228.6,221.9c-0.3-2.8-2.3-4.1-4.7-4.9c-3.1-1-6.3-1.9-10.2-3c0.8,4.8,4.8,6.2,6.7,9.2
	c0.8,1.3,4.4,1.1,6.8,1.2C228.4,224.4,228.8,223.1,228.6,221.9z M198.6,222.3c-6.1-3.5-10.8-6-16.8-4.8
	C186.1,221.5,190.9,223.8,198.6,222.3z M56.2,243.8c-1.8,0-3.3,1.5-3.3,3.3c0,1.8,1.5,3.3,3.3,3.3c1.8,0,3.3-1.5,3.3-3.3
	C59.5,245.3,58,243.8,56.2,243.8z M64.5,259.3c-1.8,0-3.3,1.5-3.3,3.3s1.5,3.3,3.3,3.3c1.8,0,3.3-1.5,3.3-3.3S66.4,259.3,64.5,259.3
	z M52.8,257.6c-1.8,0-3.3,1.5-3.3,3.3c0,1.8,1.5,3.3,3.3,3.3c1.8,0,3.3-1.5,3.3-3.3C56.2,259.1,54.7,257.6,52.8,257.6z M69.3,248.7
	c-1.8,0-3.3,1.5-3.3,3.3s1.5,3.3,3.3,3.3c1.8,0,3.3-1.5,3.3-3.3S71.1,248.7,69.3,248.7z M95.9,249.4l0.7,10c0.1,1.9-1.3,3.6-3.2,3.7
	c-0.1,0-0.2,0-0.3,0c-1.8,0-3.3-1.4-3.5-3.2l-0.1-1.6l-5.1,0.4c-0.5,4.3-2.1,8.3-4.5,11.6l3.6,3.3l1-1.1c1.3-1.4,3.5-1.6,4.9-0.3
	c1.4,1.3,1.6,3.5,0.3,4.9l-6.7,7.5c-0.7,0.8-1.6,1.2-2.6,1.2c-0.8,0-1.7-0.3-2.3-0.9c-1.4-1.3-1.6-3.5-0.3-4.9l1.1-1.2l-3.8-3.4
	c-3.1,2.4-6.8,4.1-10.9,4.7l0.3,4.9l1.5-0.1c1.9-0.1,3.6,1.4,3.7,3.3s-1.4,3.6-3.3,3.7l-10,0.6c-0.1,0-0.1,0-0.2,0
	c-1.8,0-3.4-1.4-3.5-3.3c-0.1-1.9,1.4-3.6,3.3-3.7l1.6-0.1l-0.3-5.1c-4.5-0.6-8.6-2.4-12-5l-3.4,3.5l1,1c1.4,1.4,1.4,3.6,0.1,4.9
	c-0.7,0.7-1.6,1.1-2.5,1.1c-0.9,0-1.8-0.3-2.4-1l-7.2-7c-1.4-1.4-1.4-3.6-0.1-4.9c1.4-1.4,3.6-1.4,4.9-0.1l1.2,1.1l3.6-3.7
	c-2.3-3.2-3.8-7-4.3-11.1l-4.9,0.1l0,1.5c0,1.9-1.5,3.5-3.4,3.6c0,0,0,0-0.1,0c-1.9,0-3.5-1.5-3.5-3.4l-0.2-10.1
	c0-1.9,1.5-3.5,3.4-3.6c0,0,0,0,0.1,0c1.9,0,3.5,1.5,3.5,3.4l0,1.6l5.1-0.1c0.7-4.2,2.5-8.1,5.1-11.3l-3.4-3.4l-1,1
	c-0.7,0.7-1.6,1-2.5,1s-1.8-0.3-2.5-1c-1.4-1.4-1.4-3.6,0-5l7.1-7.1c1.4-1.4,3.6-1.4,5,0c1.4,1.4,1.4,3.6,0,5l-1.1,1.1l3.6,3.6
	c3.2-2.2,7-3.7,11.1-4.1l0-4.9l-1.5,0c0,0,0,0,0,0c-1.9,0-3.5-1.6-3.5-3.5c0-1.9,1.6-3.5,3.5-3.5l10.1,0c0,0,0,0,0,0
	c1.9,0,3.5,1.6,3.5,3.5c0,1.9-1.6,3.5-3.5,3.5l-1.6,0l0,5.1c3.5,0.6,6.8,2,9.6,4l3.2-3.7l-1.1-1c-1.5-1.3-1.6-3.5-0.3-4.9
	c1.3-1.5,3.5-1.6,4.9-0.3l7.6,6.6c1.5,1.3,1.6,3.5,0.3,4.9c-0.7,0.8-1.7,1.2-2.6,1.2c-0.8,0-1.6-0.3-2.3-0.9l-1.2-1.1l-3.4,3.9
	c2.5,3.1,4.2,6.8,4.9,10.8l4.9-0.4l-0.1-1.4c-0.1-1.9,1.3-3.6,3.2-3.7C94.1,246,95.8,247.5,95.9,249.4z M77.6,256.1
	c0-9.6-7.8-17.4-17.4-17.4s-17.4,7.8-17.4,17.4s7.8,17.4,17.4,17.4S77.6,265.7,77.6,256.1z"/>
</svg>
