<?xml version="1.0" encoding="utf-8"?>
<!-- Generator: Adobe Illustrator 23.0.3, SVG Export Plug-In . SVG Version: 6.00 Build 0)  -->
<svg version="1.1" id="Layer_1" xmlns="http://www.w3.org/2000/svg" xmlns:xlink="http://www.w3.org/1999/xlink" x="0px" y="0px"
	 viewBox="0 0 300 300" style="enable-background:new 0 0 300 300;" xml:space="preserve">
<style type="text/css">
	.st0{fill:url(#SVGID_1_);}
	.st1{fill:url(#SVGID_2_);}
	.st2{fill:url(#SVGID_3_);}
	.st3{fill:url(#SVGID_4_);}
	.st4{fill:url(#SVGID_5_);}
	.st5{fill:url(#SVGID_6_);}
	.st6{fill:url(#SVGID_7_);}
	.st7{fill:url(#SVGID_8_);}
	.st8{fill:url(#SVGID_9_);}
	.st9{fill:url(#SVGID_10_);}
	.st10{fill:url(#SVGID_11_);}
	.st11{fill:url(#SVGID_12_);}
	.st12{fill:url(#SVGID_13_);}
	.st13{fill:url(#SVGID_14_);}
	.st14{fill:url(#SVGID_15_);}
	.st15{fill:url(#SVGID_16_);}
	.st16{fill:none;stroke:#232323;stroke-width:7;stroke-linecap:round;stroke-miterlimit:10;}
	.st17{fill:none;stroke:#232323;stroke-width:7;stroke-linecap:round;stroke-linejoin:round;stroke-miterlimit:10;}
	.st18{fill:#232323;}
	.st19{fill:none;stroke:#232323;stroke-width:5;stroke-linecap:round;stroke-linejoin:round;stroke-miterlimit:10;}
	.st20{fill:url(#SVGID_17_);}
	.st21{fill:url(#SVGID_18_);}
	.st22{fill:url(#SVGID_19_);}
	.st23{fill:url(#SVGID_20_);}
	.st24{fill:url(#SVGID_21_);}
	.st25{fill:url(#SVGID_22_);}
	.st26{fill:url(#SVGID_23_);}
	.st27{fill:url(#SVGID_24_);}
	.st28{fill:url(#SVGID_25_);}
	.st29{fill:url(#SVGID_26_);}
	.st30{fill:url(#SVGID_27_);}
	.st31{fill:url(#SVGID_28_);}
	.st32{opacity:0.8;}
	.st33{fill:#FFFFFF;}
</style>
<linearGradient id="SVGID_1_" gradientUnits="userSpaceOnUse" x1="26.4403" y1="152.465" x2="284.6503" y2="152.465">
	<stop  offset="0" style="stop-color:#FF0F87"/>
	<stop  offset="1" style="stop-color:#4612CC"/>
</linearGradient>
<path class="st0" d="M125.9,125.5h11.2v33.8c0,1.9,1.6,3.5,3.5,3.5h25.1c1.9,0,3.5-1.6,3.5-3.5v-33.8h10c1.9,0,3.5-1.6,3.5-3.5V73.4
	c0-9.1-6.8-16.5-15.6-17.6c3.4-3.7,5.5-8.7,5.5-14.1c0-11.6-9.4-20.9-20.9-20.9s-20.9,9.4-20.9,20.9c0,5.6,2.2,10.6,5.7,14.3
	c-8,1.7-14.1,8.9-14.1,17.4V122C122.4,123.9,124,125.5,125.9,125.5z M151.7,27.7c7.7,0,13.9,6.3,13.9,13.9s-6.3,13.9-13.9,13.9
	c-7.7,0-13.9-6.3-13.9-13.9S144,27.7,151.7,27.7z M129.4,73.4c0-5.9,4.8-10.8,10.8-10.8h24.7c5.9,0,10.8,4.8,10.8,10.8v45.1h-10
	c-1.9,0-3.5,1.6-3.5,3.5v33.8h-18.1V122c0-1.9-1.6-3.5-3.5-3.5h-11.2V73.4z M71.2,177.2c3.4-3.7,5.5-8.7,5.5-14.1
	c0-11.6-9.4-20.9-20.9-20.9s-20.9,9.4-20.9,20.9c0,5.6,2.2,10.6,5.7,14.3c-8,1.7-14.1,8.9-14.1,17.4v48.6c0,1.9,1.6,3.5,3.5,3.5
	h11.2v33.8c0,1.9,1.6,3.5,3.5,3.5h25.1c1.9,0,3.5-1.6,3.5-3.5V247h10c1.9,0,3.5-1.6,3.5-3.5v-48.6C86.7,185.8,79.9,178.3,71.2,177.2
	z M55.7,149.2c7.7,0,13.9,6.3,13.9,13.9s-6.3,13.9-13.9,13.9c-7.7,0-13.9-6.3-13.9-13.9S48.1,149.2,55.7,149.2z M79.7,240h-10
	c-1.9,0-3.5,1.6-3.5,3.5v33.8H48.1v-33.8c0-1.9-1.6-3.5-3.5-3.5H33.4v-45.1c0-5.9,4.8-10.8,10.8-10.8H69c5.9,0,10.8,4.8,10.8,10.8
	V240z M269.1,177.2c3.4-3.7,5.5-8.7,5.5-14.1c0-11.6-9.4-20.9-20.9-20.9s-20.9,9.4-20.9,20.9c0,5.6,2.2,10.6,5.7,14.3
	c-8,1.7-14.1,8.9-14.1,17.4v48.6c0,1.9,1.6,3.5,3.5,3.5H239v33.8c0,1.9,1.6,3.5,3.5,3.5h25.1c1.9,0,3.5-1.6,3.5-3.5V247h10
	c1.9,0,3.5-1.6,3.5-3.5v-48.6C284.7,185.8,277.8,178.3,269.1,177.2z M253.6,149.2c7.7,0,13.9,6.3,13.9,13.9s-6.3,13.9-13.9,13.9
	c-7.7,0-13.9-6.3-13.9-13.9S246,149.2,253.6,149.2z M277.7,240h-10c-1.9,0-3.5,1.6-3.5,3.5v33.8H246v-33.8c0-1.9-1.6-3.5-3.5-3.5
	h-11.2v-45.1c0-5.9,4.8-10.8,10.8-10.8h24.7c5.9,0,10.8,4.8,10.8,10.8V240z M219.6,254.7c1.1,1.6,0.7,3.8-0.9,4.9
	c-18,12.5-39.2,19.2-61.2,19.2c-24.5,0-48.5-8.5-67.5-23.9c-1.5-1.2-1.7-3.4-0.5-4.9c1.2-1.5,3.4-1.7,4.9-0.5
	c17.8,14.4,40.2,22.3,63.1,22.3c20.6,0,40.4-6.2,57.2-17.9C216.3,252.7,218.5,253.1,219.6,254.7z M190.2,72.9
	c0.7-1.8,2.7-2.7,4.5-2.1c28.2,10.4,50.8,32.4,62.2,60.2c0.7,1.8-0.1,3.8-1.9,4.6c-0.4,0.2-0.9,0.3-1.3,0.3c-1.4,0-2.7-0.8-3.2-2.2
	c-10.6-26-31.8-46.5-58.1-56.3C190.5,76.7,189.5,74.7,190.2,72.9z M58.1,131c9.7-23.8,27.7-43.4,50.6-55.1c1.7-0.9,3.8-0.2,4.7,1.5
	c0.9,1.7,0.2,3.8-1.5,4.7c-21.4,11-38.2,29.3-47.3,51.6c-0.6,1.4-1.9,2.2-3.2,2.2c-0.4,0-0.9-0.1-1.3-0.3
	C58.2,134.9,57.4,132.8,58.1,131z"/>
</svg>
