<?xml version="1.0" encoding="utf-8"?>
<!-- Generator: Adobe Illustrator 23.0.3, SVG Export Plug-In . SVG Version: 6.00 Build 0)  -->
<svg version="1.1" id="Layer_1" xmlns="http://www.w3.org/2000/svg" xmlns:xlink="http://www.w3.org/1999/xlink" x="0px" y="0px"
	 viewBox="0 0 300 300" style="enable-background:new 0 0 300 300;" xml:space="preserve">
<style type="text/css">
	.st0{fill:url(#SVGID_1_);}
	.st1{fill:url(#SVGID_2_);}
	.st2{fill:url(#SVGID_3_);}
	.st3{fill:url(#SVGID_4_);}
	.st4{fill:url(#SVGID_5_);}
	.st5{fill:url(#SVGID_6_);}
	.st6{fill:url(#SVGID_7_);}
	.st7{fill:url(#SVGID_8_);}
	.st8{fill:url(#SVGID_9_);}
	.st9{fill:url(#SVGID_10_);}
	.st10{fill:url(#SVGID_11_);}
	.st11{fill:url(#SVGID_12_);}
	.st12{fill:url(#SVGID_13_);}
	.st13{fill:url(#SVGID_14_);}
	.st14{fill:url(#SVGID_15_);}
	.st15{fill:url(#SVGID_16_);}
	.st16{fill:none;stroke:#232323;stroke-width:7;stroke-linecap:round;stroke-miterlimit:10;}
	.st17{fill:none;stroke:#232323;stroke-width:7;stroke-linecap:round;stroke-linejoin:round;stroke-miterlimit:10;}
	.st18{fill:#232323;}
	.st19{fill:none;stroke:#232323;stroke-width:5;stroke-linecap:round;stroke-linejoin:round;stroke-miterlimit:10;}
	.st20{fill:url(#SVGID_17_);}
	.st21{fill:url(#SVGID_18_);}
	.st22{fill:url(#SVGID_19_);}
	.st23{fill:url(#SVGID_20_);}
	.st24{fill:url(#SVGID_21_);}
	.st25{fill:url(#SVGID_22_);}
	.st26{fill:url(#SVGID_23_);}
	.st27{fill:url(#SVGID_24_);}
	.st28{fill:url(#SVGID_25_);}
	.st29{fill:url(#SVGID_26_);}
	.st30{fill:url(#SVGID_27_);}
	.st31{fill:url(#SVGID_28_);}
	.st32{opacity:0.8;}
	.st33{fill:#FFFFFF;}
</style>
<linearGradient id="SVGID_1_" gradientUnits="userSpaceOnUse" x1="40.287" y1="150" x2="264.8026" y2="150">
	<stop  offset="0" style="stop-color:#FF0F87"/>
	<stop  offset="1" style="stop-color:#4612CC"/>
</linearGradient>
<path class="st0" d="M264.8,246c0,1.9-1.6,3.5-3.5,3.5H78.7h0H43.8c-1.9,0-3.5-1.6-3.5-3.5V54c0-1.9,1.6-3.5,3.5-3.5
	s3.5,1.6,3.5,3.5v27.7h7.4c1.9,0,3.5,1.6,3.5,3.5s-1.6,3.5-3.5,3.5h-7.4V110h7.4c1.9,0,3.5,1.6,3.5,3.5s-1.6,3.5-3.5,3.5h-7.4v21.3
	h7.4c1.9,0,3.5,1.6,3.5,3.5s-1.6,3.5-3.5,3.5h-7.4V168h7.4c1.9,0,3.5,1.6,3.5,3.5s-1.6,3.5-3.5,3.5h-7.4v19.2h7.4
	c1.9,0,3.5,1.6,3.5,3.5s-1.6,3.5-3.5,3.5h-7.4v41.2h27.9l-0.4-48c0-1.9,1.5-3.5,3.5-3.5c0,0,0,0,0,0c1.9,0,3.5,1.6,3.5,3.5l0.4,48.1
	h20.1v-78.7c0-1.9,1.6-3.5,3.5-3.5s3.5,1.6,3.5,3.5v78.7h20.4v-92.9c0-1.9,1.6-3.5,3.5-3.5s3.5,1.6,3.5,3.5v92.9h20.8v-60.4
	c0-1.9,1.6-3.5,3.5-3.5s3.5,1.6,3.5,3.5v60.4h19.9v-42.9c0-1.9,1.6-3.5,3.5-3.5s3.5,1.6,3.5,3.5v42.9h20.6v-27.7
	c0-1.9,1.6-3.5,3.5-3.5s3.5,1.6,3.5,3.5v27.7h20.2v-18.9c0-1.9,1.6-3.5,3.5-3.5s3.5,1.6,3.5,3.5v18.9h15.2
	C263.2,242.5,264.8,244,264.8,246z M74.8,126.7c0-9.2,7.5-16.7,16.7-16.7c2.7,0,5.3,0.7,7.6,1.9l17.1-23.4c-2-2.8-3.2-6.1-3.2-9.8
	c0-9.2,7.5-16.7,16.7-16.7s16.7,7.5,16.7,16.7c0,5.1-2.3,9.7-5.9,12.7l22.3,39.5c1.7-0.6,3.5-0.9,5.4-0.9c5,0,9.5,2.2,12.6,5.8
	l11.1-5.5c-0.9-2.1-1.5-4.4-1.5-6.8c0-9.2,7.5-16.7,16.7-16.7s16.7,7.5,16.7,16.7c0,5.8-3,10.9-7.5,13.9l24,45.8
	c1.4-0.4,2.9-0.6,4.5-0.6c9.2,0,16.7,7.5,16.7,16.7s-7.5,16.7-16.7,16.7c-9.2,0-16.7-7.5-16.7-16.7c0-5.2,2.3-9.8,6-12.8L209.9,140
	c-0.9,0.1-1.7,0.2-2.7,0.2c-4.2,0-8.1-1.6-11-4.2l-12,5.9c0.5,1.5,0.7,3.1,0.7,4.8c0,9.2-7.5,16.7-16.7,16.7s-16.7-7.5-16.7-16.7
	c0-4.8,2.1-9.1,5.3-12.2l-22.5-39.8c-1.5,0.4-3,0.7-4.6,0.7c-3,0-5.8-0.8-8.3-2.2l-16.9,23.1c0,0,0,0,0,0c2.3,2.9,3.7,6.5,3.7,10.4
	c0,9.2-7.5,16.7-16.7,16.7S74.8,135.9,74.8,126.7z M244.9,189.6c-5.4,0-9.7,4.4-9.7,9.7s4.4,9.7,9.7,9.7s9.7-4.4,9.7-9.7
	S250.3,189.6,244.9,189.6z M197.5,123.5c0,5.4,4.4,9.7,9.7,9.7s9.7-4.4,9.7-9.7s-4.4-9.7-9.7-9.7S197.5,118.1,197.5,123.5z
	 M168.3,137c-5.4,0-9.7,4.4-9.7,9.7s4.4,9.7,9.7,9.7s9.7-4.4,9.7-9.7S173.6,137,168.3,137z M120,78.6c0,5.4,4.4,9.7,9.7,9.7
	c5.4,0,9.7-4.4,9.7-9.7c0-5.4-4.4-9.7-9.7-9.7C124.4,68.9,120,73.3,120,78.6z M81.8,126.7c0,5.4,4.4,9.7,9.7,9.7s9.7-4.4,9.7-9.7
	c0-5.4-4.4-9.7-9.7-9.7S81.8,121.4,81.8,126.7z"/>
</svg>
